HIERARCHY
ROOT SpineBase
{
  OFFSET 0.000000 0.000000 0.000000
  CHANNELS 6 Xposition Yposition Zposition Zrotation Xrotation Yrotation
  JOINT SpineMid
  {
    OFFSET -0.000000 28.293437 0.000000
    CHANNELS 3 Zrotation Xrotation Yrotation
    JOINT SpineShoulder
    {
      OFFSET -0.119634 21.013768 -0.728819
      CHANNELS 3 Zrotation Xrotation Yrotation
      JOINT Neck
      {
        OFFSET -0.069353 6.953533 -0.545232
        CHANNELS 3 Zrotation Xrotation Yrotation
        JOINT Head
        {
          OFFSET -2.113173 11.681872 -0.242308
          CHANNELS 3 Zrotation Xrotation Yrotation
          End Site
          {
            OFFSET 0 0 0
          }
        }
      }
      JOINT ShoulderLeft
      {
        OFFSET -16.415932 -1.160743 3.452298
        CHANNELS 3 Zrotation Xrotation Yrotation
        JOINT ElbowLeft
        {
          OFFSET -3.878689 -27.717879 1.193694
          CHANNELS 3 Zrotation Xrotation Yrotation
          JOINT WristLeft
          {
            OFFSET -3.413291 -20.496325 -3.317658
            CHANNELS 3 Zrotation Xrotation Yrotation
            JOINT HandLeft
            {
              OFFSET 0.946728 -6.561771 -2.787102
              CHANNELS 3 Zrotation Xrotation Yrotation
              JOINT HandTipLeft
              {
                OFFSET 0.319867 -6.809260 -0.223709
                CHANNELS 3 Zrotation Xrotation Yrotation
                End Site
                {
                  OFFSET 0 0 0
                }
              }
              JOINT ThumbLeft
              {
                OFFSET -2.712416 -0.251973 -0.676510
                CHANNELS 3 Zrotation Xrotation Yrotation
                End Site
                {
                  OFFSET 0 0 0
                }
              }
            }
          }
        }
      }
      JOINT ShoulderRight
      {
        OFFSET 15.976582 -1.303210 -4.061339
        CHANNELS 3 Zrotation Xrotation Yrotation
        JOINT ElbowRight
        {
          OFFSET 6.044308 -27.245613 -1.917603
          CHANNELS 3 Zrotation Xrotation Yrotation
          JOINT WristRight
          {
            OFFSET 2.702722 -20.385449 -4.644082
            CHANNELS 3 Zrotation Xrotation Yrotation
            JOINT HandRight
            {
              OFFSET -1.839065 -6.436091 -2.672361
              CHANNELS 3 Zrotation Xrotation Yrotation
              JOINT HandTipRight
              {
                OFFSET 0.325099 -5.508034 -2.273251
                CHANNELS 3 Zrotation Xrotation Yrotation
                End Site
                {
                  OFFSET 0 0 0
                }
              }
              JOINT ThumbRight
              {
                OFFSET -3.142885 -0.264465 -0.840084
                CHANNELS 3 Zrotation Xrotation Yrotation
                End Site
                {
                  OFFSET 0 0 0
                }
              }
            }
          }
        }
      }
    }
  }
  JOINT HipLeft
  {
    OFFSET -6.037212 0.581383 -2.186190
    CHANNELS 3 Zrotation Xrotation Yrotation
    JOINT KneeLeft
    {
      OFFSET -6.015377 -33.688404 -0.137722
      CHANNELS 3 Zrotation Xrotation Yrotation
      JOINT AnkleLeft
      {
        OFFSET 1.803036 -32.891639 6.528740
        CHANNELS 3 Zrotation Xrotation Yrotation
        JOINT FootLeft
        {
          OFFSET -2.123906 -3.545702 -12.969205
          CHANNELS 3 Zrotation Xrotation Yrotation
          End Site
          {
            OFFSET 0 0 0
          }
        }
      }
    }
  }
  JOINT HipRight
  {
    OFFSET 5.386953 0.872335 -4.476745
    CHANNELS 3 Zrotation Xrotation Yrotation
    JOINT KneeRight
    {
      OFFSET 4.536330 -26.606629 1.228993
      CHANNELS 3 Zrotation Xrotation Yrotation
      JOINT AnkleRight
      {
        OFFSET 0.128675 -37.976248 9.315281
        CHANNELS 3 Zrotation Xrotation Yrotation
        JOINT FootRight
        {
          OFFSET -3.052691 -5.650423 -8.539349
          CHANNELS 3 Zrotation Xrotation Yrotation
          End Site
          {
            OFFSET 0 0 0
          }
        }
      }
    }
  }
}
MOTION
Frames: 14
Frame Time: 0.033333
23.525807 73.824164 362.742654 8.546077 -7.619315 12.294901 1.323432 -1.132025 -11.451736 0.110168 0.795367 0.338122 12.602792 0.827700 -2.443721 0.000000 0.000000 0.000000 -16.776330 -43.364929 4.927172 1.022735 -2.471051 3.167014 -21.577321 -31.542932 -19.273424 -1.645221 63.005581 13.213543 0.000000 0.000000 0.000000 0.000000 0.000000 0.000000 9.566150 3.097738 -4.189286 -17.832175 9.578212 2.928427 12.346119 1.137474 -8.023411 -8.095671 -14.362579 5.981875 0.000000 0.000000 0.000000 0.000000 0.000000 0.000000 4.369528 1.722234 -11.377719 0.536727 9.532024 0.827928 -12.960716 -13.147583 1.902943 0.000000 0.000000 0.000000 5.918940 31.412130 -11.179215 32.560416 -51.166981 27.292154 -31.084896 40.792345 0.400344 0.000000 0.000000 0.000000
22.328613 73.854628 362.406373 7.189331 -6.752637 11.824634 1.662195 -0.910825 -11.189123 -0.180249 1.238971 0.274037 12.365739 -2.014158 -1.894328 0.000000 0.000000 0.000000 -9.599728 -39.885422 6.230254 0.956724 -3.926659 2.146007 -20.219339 -29.534378 -15.842727 -0.017831 56.691930 9.974073 0.000000 0.000000 0.000000 0.000000 0.000000 0.000000 11.420347 2.097047 -3.809070 -17.072610 9.939164 2.444788 14.026368 -4.826434 -6.678883 -14.259171 -11.427277 6.678040 0.000000 0.000000 0.000000 0.000000 0.000000 0.000000 6.059183 0.281970 -10.950438 -0.228323 9.497187 0.796467 -12.712495 -10.635141 0.000175 0.000000 0.000000 0.000000 3.300312 37.737971 -9.128819 38.215674 -47.929187 29.003954 -30.159790 29.053230 -3.111481 0.000000 0.000000 0.000000
21.146933 73.889399 362.091969 5.694187 -5.736956 11.649152 1.844855 -0.567821 -11.211626 -0.424950 1.467209 0.217291 12.162614 -3.636973 -1.404355 0.000000 0.000000 0.000000 -4.249798 -35.387986 6.453585 0.877678 -7.313965 1.937817 -17.455612 -16.554562 -8.667409 5.151862 43.490645 3.070202 0.000000 0.000000 0.000000 0.000000 0.000000 0.000000 13.380772 1.003149 -3.337056 -15.662503 9.374120 1.732302 13.181789 -7.338064 -5.489859 -14.112120 -7.976732 6.076891 0.000000 0.000000 0.000000 0.000000 0.000000 0.000000 6.836443 -1.498414 -10.605939 1.963444 9.781775 0.726905 -14.609539 -9.691340 -0.335212 0.000000 0.000000 0.000000 -0.223981 42.621455 -6.680620 39.844643 -41.605991 26.901618 -29.036608 15.632757 -6.166235 0.000000 0.000000 0.000000
20.184273 73.947443 361.843507 4.413015 -4.694260 11.706911 1.749024 0.079035 -11.425974 -0.680882 1.587118 0.160687 12.002026 -5.606502 -0.933700 0.000000 0.000000 0.000000 -0.474229 -31.158374 6.049744 1.144893 -8.634550 1.576870 -16.947012 0.106331 -1.532655 9.111522 24.895795 -2.177648 0.000000 0.000000 0.000000 0.000000 0.000000 0.000000 15.277247 -0.269322 -2.732932 -14.107097 8.221911 1.022735 11.494972 -8.816170 -4.240507 -13.686125 -5.116089 5.332084 0.000000 0.000000 0.000000 0.000000 0.000000 0.000000 6.724577 -2.375234 -10.653255 5.059666 9.054454 0.890876 -15.461713 -14.072360 -2.874659 0.000000 0.000000 0.000000 -4.588996 46.242676 -3.947176 36.403326 -32.126816 20.497680 -25.906873 -0.180036 -8.882135 0.000000 0.000000 0.000000
19.541839 74.029181 361.522118 3.517438 -3.470007 11.879435 1.388630 0.734715 -11.699468 -0.807626 1.541004 0.112451 11.193288 -6.563329 -0.543917 0.000000 0.000000 0.000000 1.530951 -27.128158 5.226413 1.396348 -7.938532 1.061763 -19.792648 13.031965 5.577726 13.785881 7.222117 -6.184548 0.000000 0.000000 0.000000 0.000000 0.000000 0.000000 16.640049 -1.489722 -2.078344 -11.628770 6.735555 0.128771 7.701175 -10.448010 -2.172339 -10.602510 -3.746116 3.240369 0.000000 0.000000 0.000000 0.000000 0.000000 0.000000 4.277125 -2.106973 -10.987286 10.349483 7.079527 1.403422 -16.874283 -16.532544 -4.645015 0.000000 0.000000 0.000000 -9.638194 48.105510 -1.227163 29.681950 -19.522130 11.900902 -19.524517 -17.311576 -9.912069 0.000000 0.000000 0.000000
19.196298 74.151516 361.233199 2.933046 -2.305714 11.984239 0.796104 1.586594 -11.875294 -0.825878 1.217593 0.069758 10.658447 -6.932957 -0.203942 0.000000 0.000000 0.000000 2.340433 -22.465244 4.072682 1.314084 -5.612346 0.470105 -21.603260 18.052362 9.540157 11.946295 -0.464062 -6.692225 0.000000 0.000000 0.000000 0.000000 0.000000 0.000000 17.504540 -2.605311 -1.453449 -9.466647 5.025892 -0.521065 4.632430 -11.123307 -0.531940 -7.700703 -0.735178 1.171120 0.000000 0.000000 0.000000 0.000000 0.000000 0.000000 3.210914 -1.836742 -11.321070 12.920724 5.261816 2.062337 -17.673909 -17.086434 -4.927713 0.000000 0.000000 0.000000 -11.994425 47.016869 -0.445461 18.604686 -3.462906 1.824487 -6.750420 -33.642380 -5.717461 0.000000 0.000000 0.000000
19.181189 74.233048 360.876317 2.752153 -0.994391 12.713501 -0.004732 2.440274 -12.657389 -0.735051 0.891425 0.033504 9.588966 -7.183276 0.090359 0.000000 0.000000 0.000000 2.848676 -18.859763 3.153659 -1.420936 -0.228722 0.144915 -17.480596 18.731766 9.180583 6.882350 -3.384824 -6.381105 0.000000 0.000000 0.000000 0.000000 0.000000 0.000000 17.818781 -4.056795 -0.821257 -7.829145 3.394573 -0.884016 2.854470 -10.931634 0.515569 -4.812923 0.192643 -0.735516 0.000000 0.000000 0.000000 0.000000 0.000000 0.000000 2.256095 -1.887125 -12.242967 14.494859 3.934603 2.650649 -18.504171 -15.341718 -3.803088 0.000000 0.000000 0.000000 -15.905583 47.047283 0.408471 9.412181 8.156346 -5.386501 15.350095 -41.823822 4.747610 0.000000 0.000000 0.000000
19.170694 74.215309 360.287768 2.432070 0.754698 13.890294 -0.587032 2.713522 -13.892910 -0.640265 0.737987 0.002132 8.461761 -7.601773 0.338802 0.000000 0.000000 0.000000 2.034497 -14.513998 1.903970 -2.150451 7.674547 -0.943193 -18.084518 9.856066 10.140181 7.490463 2.570145 -6.884775 0.000000 0.000000 0.000000 0.000000 0.000000 0.000000 17.909714 -5.556415 -0.199633 -6.738039 1.575275 -1.082488 1.756325 -10.304676 1.328848 -2.957676 -0.569563 -2.051042 0.000000 0.000000 0.000000 0.000000 0.000000 0.000000 2.438490 -3.144324 -13.479852 14.534090 3.101024 3.017423 -19.562888 -11.326265 -1.233835 0.000000 0.000000 0.000000 -22.810894 48.254643 2.411705 7.422628 14.095355 -7.418155 24.068180 -43.438021 14.097697 0.000000 0.000000 0.000000
18.993601 74.224679 359.470143 1.747375 2.832069 15.363260 -0.874661 2.365123 -15.418718 -0.566381 0.888431 -0.024683 7.711769 -8.286502 0.579912 0.000000 0.000000 0.000000 0.088718 -10.626921 0.621415 -0.332439 13.034776 -1.827688 -22.767323 18.257307 16.402245 9.707471 -10.590239 -9.642774 0.000000 0.000000 0.000000 0.000000 0.000000 0.000000 17.922539 -7.054292 0.422885 -6.022589 -0.227441 -1.188460 1.396305 -9.049861 1.642697 -1.640873 1.279185 -2.942671 0.000000 0.000000 0.000000 0.000000 0.000000 0.000000 3.976218 -6.081704 -14.655464 12.848446 3.302318 2.912509 -20.882392 -6.129621 2.295902 0.000000 0.000000 0.000000 -31.393880 50.978512 5.797434 8.129361 14.050200 -8.511042 29.002739 -40.982782 19.989707 0.000000 0.000000 0.000000
18.746367 74.210705 358.666289 0.919839 4.746344 17.165302 -0.965369 1.861765 -17.244564 -0.601127 1.066395 -0.056486 7.413073 -8.613096 0.840510 0.000000 0.000000 0.000000 -2.310646 -5.601353 -0.683464 1.550173 22.832974 -2.938428 -22.924530 6.008070 14.482002 13.299205 -5.492127 -8.651957 0.000000 0.000000 0.000000 0.000000 0.000000 0.000000 17.949473 -8.173716 0.963453 -5.587427 -1.772449 -1.251584 2.051011 -8.689706 1.839953 -0.149260 1.041797 -4.068329 0.000000 0.000000 0.000000 0.000000 0.000000 0.000000 6.431807 -9.724323 -15.769423 9.971585 4.197907 2.591932 -20.838828 -5.376624 2.361531 0.000000 0.000000 0.000000 -39.721819 52.865600 8.680601 10.437085 12.789088 -8.431304 34.935219 -39.486506 24.545797 0.000000 0.000000 0.000000
18.300837 74.188173 357.987267 -0.113434 6.364780 19.566859 -0.820920 1.353023 -19.622759 -0.724031 1.209700 -0.097399 7.131325 -9.267465 0.982562 0.000000 0.000000 0.000000 -4.672037 0.216335 -1.776384 5.260728 28.143777 -3.585353 -27.791000 6.704069 16.272527 17.487507 -9.701197 -7.761121 0.000000 0.000000 0.000000 0.000000 0.000000 0.000000 17.984967 -8.937744 1.423252 -5.412279 -2.711807 -1.257918 4.613401 -9.208336 1.408456 -1.419506 -0.533869 -3.704974 0.000000 0.000000 0.000000 0.000000 0.000000 0.000000 8.587090 -13.244056 -17.304313 6.691577 5.609217 2.159113 -19.789224 -6.232424 1.761604 0.000000 0.000000 0.000000 -45.867588 54.781002 10.233094 13.335807 9.489123 -8.326070 39.580084 -37.746051 27.424552 0.000000 0.000000 0.000000
17.888531 74.227049 357.284814 -1.085815 7.971771 21.989665 -0.840810 0.991227 -22.009933 -0.815699 1.320655 -0.139033 7.487220 -10.892625 1.097546 0.000000 0.000000 0.000000 -7.255254 5.873783 -2.611811 10.210955 29.338840 -3.364856 -31.739991 25.535988 23.857798 14.916513 -26.631489 -6.654134 0.000000 0.000000 0.000000 0.000000 0.000000 0.000000 18.128398 -9.698759 1.906321 -5.504811 -2.829586 -1.192434 7.660938 -11.365488 1.251852 -3.850476 1.212221 -3.091623 0.000000 0.000000 0.000000 0.000000 0.000000 0.000000 10.367568 -16.808374 -18.702869 3.159289 6.402099 1.814007 -19.486601 0.264117 2.157450 0.000000 0.000000 0.000000 -53.197825 56.607250 12.503056 19.256544 4.519669 -6.432351 40.201134 -32.655082 24.391492 0.000000 0.000000 0.000000
17.526804 74.278254 356.687054 -1.968860 9.363179 24.079135 -0.922773 0.572841 -24.050150 -0.840771 1.295905 -0.172866 7.567966 -10.910197 1.292256 0.000000 0.000000 0.000000 -9.730037 11.220752 -3.074183 15.928787 28.785670 -2.606128 -31.756532 37.349363 27.112027 9.790481 -30.128519 -6.057525 0.000000 0.000000 0.000000 0.000000 0.000000 0.000000 18.124704 -10.025382 2.249215 -4.834213 -3.740523 -1.334299 6.177543 -7.984775 0.361637 -3.777752 -1.518551 -1.943028 0.000000 0.000000 0.000000 0.000000 0.000000 0.000000 10.515200 -20.567283 -19.834632 2.649005 8.378040 1.276002 -20.335489 0.681080 3.041852 0.000000 0.000000 0.000000 -59.881791 57.426803 14.125460 25.742532 0.556199 -3.805065 36.034849 -31.336965 23.978347 0.000000 0.000000 0.000000
17.287529 74.433285 356.136441 -2.655994 10.567974 25.749104 -0.976808 0.259043 -25.664448 -0.820563 1.216120 -0.195968 7.658785 -11.327769 1.410026 0.000000 0.000000 0.000000 -11.819713 14.830811 -3.282772 21.499532 28.158051 -1.751799 -30.908107 40.859479 26.064239 3.973271 -23.046271 -9.078679 0.000000 0.000000 0.000000 0.000000 0.000000 0.000000 17.847035 -9.974100 2.537976 -3.794712 -3.763483 -1.526546 2.717587 -7.133696 1.004246 -1.227045 -3.677374 -2.674727 0.000000 0.000000 0.000000 0.000000 0.000000 0.000000 9.966081 -22.661114 -21.114264 2.517115 8.762486 1.100104 -19.587209 -1.330885 1.986160 0.000000 0.000000 0.000000 -63.678986 57.156574 13.413448 30.562461 -1.216630 -1.746419 33.555348 -29.753345 23.485581 0.000000 0.000000 0.000000
